<svg xmlns="http://www.w3.org/2000/svg" xmlns:xlink="http://www.w3.org/1999/xlink" preserveAspectRatio="xMidYMid" width="179.219" height="66" viewBox="0 0 179.219 66">
  <defs>
    <style>
      .cls-1 {
        fill: #00b095;
      }

      .cls-1, .cls-2, .cls-3, .cls-4 {
        fill-rule: evenodd;
      }

      .cls-2, .cls-3 {
        fill: #5c5e62;
      }

      .cls-2 {
        filter: url(#color-overlay-1);
      }

      .cls-4 {
        fill: #4a4a4a;
      }
    </style>

    <filter id="color-overlay-1" filterUnits="userSpaceOnUse">
      <feFlood flood-color="#6d6d6d"/>
      <feComposite operator="in" in2="SourceGraphic"/>
      <feBlend in2="SourceGraphic" result="solidFill"/>
    </filter>
  </defs>
  <g>
    <path d="M55.398,27.807 C56.424,29.948 57.000,32.350 57.000,34.896 C57.000,43.832 49.917,51.065 41.181,51.065 C40.212,51.065 39.264,50.973 38.343,50.803 L41.817,47.209 L40.735,46.115 L36.610,50.384 C36.544,50.363 36.479,50.339 36.413,50.319 L37.638,49.051 L36.732,48.134 L37.457,47.383 L36.234,46.146 L39.638,43.203 L38.180,41.439 L31.217,47.461 C30.892,47.191 30.575,46.911 30.272,46.616 C30.258,46.927 30.251,47.265 30.251,47.580 C30.251,50.122 30.686,52.550 31.480,54.805 L27.068,59.370 L27.842,60.154 L31.914,55.942 C32.104,56.397 32.309,56.846 32.528,57.285 L30.328,59.567 L31.102,60.361 L33.072,58.346 C34.821,61.424 37.299,63.961 40.266,65.999 L29.768,65.999 L31.246,64.446 L30.472,63.641 L28.237,65.999 L26.656,65.999 L28.148,64.432 L27.648,63.904 L25.668,65.999 L15.768,65.999 C17.335,64.888 18.764,63.732 20.023,62.367 L22.860,60.881 L22.206,59.533 C22.852,58.554 23.422,57.522 23.905,56.441 L27.570,54.582 L26.251,51.863 L25.256,52.368 C25.573,50.954 25.751,49.486 25.777,47.977 L52.244,23.371 C53.164,24.280 53.977,25.303 54.656,26.429 C54.720,26.537 54.782,26.646 54.844,26.755 L50.073,31.654 L50.865,32.461 L55.398,27.807 ZM34.691,36.882 C34.681,36.126 34.594,35.403 34.460,34.712 C34.444,34.626 34.425,34.542 34.407,34.457 L35.273,33.316 L34.351,32.584 L35.592,31.310 L35.014,30.721 L33.732,32.038 C33.595,31.631 33.453,31.230 33.301,30.836 C33.230,30.651 33.156,30.470 33.083,30.287 L34.382,29.079 L33.111,27.649 L32.296,28.408 L31.811,27.281 C31.709,27.047 31.612,26.815 31.515,26.581 L32.124,26.027 L31.197,24.963 L30.960,25.179 C30.902,25.014 30.847,24.848 30.790,24.683 C30.729,24.509 30.655,24.336 30.606,24.162 L31.304,24.603 L31.890,23.632 L34.474,22.718 L34.838,23.060 L33.325,24.742 L34.598,25.939 L38.907,21.150 L42.820,19.765 L36.083,27.187 L37.692,28.715 L46.006,19.557 C47.755,20.142 49.374,21.001 50.799,22.103 L34.688,37.082 C34.688,37.015 34.691,36.948 34.691,36.882 ZM41.844,18.740 L44.201,18.180 C44.199,18.204 44.197,18.228 44.194,18.252 L43.899,18.576 C42.501,18.831 41.243,19.109 40.096,19.409 L39.331,18.689 L39.513,18.487 L37.662,16.745 L33.290,21.604 L33.552,21.851 C33.261,21.999 32.974,22.150 32.692,22.305 L33.585,20.826 L32.400,20.078 L30.323,23.517 L30.274,23.451 C30.179,23.308 30.018,23.184 29.860,23.094 C29.753,23.032 29.636,22.964 29.536,22.913 L29.267,22.782 C29.103,22.712 28.937,22.633 28.787,22.572 L28.062,22.271 L31.954,15.824 L30.769,15.075 L26.754,21.726 C26.569,21.647 26.384,21.570 26.200,21.490 C25.538,21.205 24.882,20.915 24.229,20.622 L25.099,19.502 L23.980,18.592 L22.877,20.010 C22.337,19.767 21.801,19.511 21.265,19.261 L19.636,18.501 C19.635,18.501 19.635,18.501 19.635,18.500 L20.563,17.306 L18.705,15.796 L17.401,17.474 C17.057,17.319 16.714,17.164 16.368,17.015 C15.273,16.538 14.170,16.083 13.060,15.646 L12.696,15.504 C12.741,14.440 12.885,13.402 13.121,12.400 L19.718,5.524 L18.600,4.401 L14.485,8.690 C17.130,3.528 22.413,-0.001 28.500,-0.001 C31.623,-0.001 34.534,0.927 36.986,2.527 L33.438,7.099 L34.327,7.821 L37.923,3.187 C38.363,3.523 38.786,3.880 39.189,4.259 L35.311,8.399 L36.718,9.777 L40.541,5.695 C41.670,7.050 42.584,8.598 43.231,10.283 L39.555,13.760 L40.877,15.222 L43.877,12.384 C44.159,13.579 44.312,14.826 44.319,16.107 L41.404,16.800 L41.844,18.740 ZM11.506,22.428 L12.535,23.265 L14.246,21.064 C14.405,21.125 14.563,21.190 14.722,21.250 C15.281,21.463 15.845,21.663 16.407,21.868 C16.657,21.957 16.907,22.045 17.157,22.133 L14.766,25.207 L15.795,26.044 L18.479,22.592 L19.585,22.975 L18.570,24.280 L19.599,25.118 L20.907,23.436 C21.100,23.504 21.293,23.571 21.484,23.642 C22.132,23.875 22.777,24.113 23.416,24.360 L22.450,25.602 L24.914,27.606 L26.429,25.659 C26.546,25.717 26.661,25.780 26.772,25.839 C26.897,25.906 27.014,25.972 27.127,26.041 C27.196,26.081 27.257,26.120 27.315,26.159 C27.397,26.258 27.478,26.357 27.551,26.455 C27.743,26.712 27.962,26.968 28.144,27.222 C28.336,27.489 28.523,27.754 28.706,28.020 L24.153,32.253 L25.749,34.049 L30.016,30.082 C30.055,30.149 30.097,30.216 30.136,30.285 C30.244,30.477 30.348,30.671 30.450,30.865 L29.311,31.923 L30.376,33.123 L29.673,33.776 L30.100,34.256 L24.239,39.705 L25.510,41.135 L30.776,36.238 L30.691,40.797 L20.393,50.371 C19.523,50.640 18.620,50.834 17.693,50.946 L14.490,48.148 L12.378,50.677 C11.676,50.518 10.991,50.311 10.328,50.061 L15.384,44.608 L14.516,43.766 L11.034,47.521 L9.263,45.804 L6.958,48.289 C6.313,47.843 5.702,47.349 5.130,46.812 L6.175,45.857 L5.539,45.129 L7.986,42.893 L7.289,42.095 L9.254,40.299 L8.315,39.224 L2.877,44.193 C2.258,43.295 1.727,42.328 1.295,41.308 L3.618,39.186 L2.550,37.964 L13.581,27.884 L12.495,26.642 L0.260,37.822 C0.090,36.871 0.000,35.892 0.000,34.891 C0.000,31.719 0.891,28.777 2.436,26.280 C4.358,23.167 7.292,20.860 10.764,19.639 C10.972,19.730 11.180,19.820 11.389,19.907 C11.911,20.130 12.434,20.346 12.959,20.559 L11.506,22.428 Z" class="cls-1"/>
    <path d="M101.564,49.967 C103.836,51.520 105.272,53.890 105.272,56.432 C105.272,61.114 100.409,64.999 94.411,64.999 L91.078,64.999 L87.027,64.999 L83.695,64.999 L89.379,33.090 L96.219,33.002 C96.270,33.001 96.319,32.999 96.371,32.999 C102.847,32.999 107.000,37.119 107.000,42.202 C107.000,45.467 104.831,48.333 101.564,49.967 ZM91.863,60.101 C92.281,60.215 92.721,60.277 93.177,60.277 C95.903,60.277 98.113,58.109 98.113,55.433 C98.113,52.762 97.251,51.381 93.315,51.377 L91.863,60.101 ZM95.530,38.061 L93.954,47.531 C94.411,47.668 94.895,47.744 95.398,47.744 C98.125,47.744 100.335,45.576 100.335,42.901 C100.335,40.269 98.196,38.129 95.530,38.061 ZM80.016,39.390 L78.553,46.259 L83.783,46.261 L82.562,52.649 L77.192,52.649 L74.601,64.818 L66.847,64.818 L73.643,32.999 L79.937,33.001 L79.937,32.999 L87.670,33.002 L86.450,39.390 L80.016,39.390 ZM63.168,39.390 L61.706,46.259 L66.935,46.261 L65.715,52.649 L60.345,52.649 L57.754,64.818 L50.000,64.818 L56.795,32.999 L63.090,33.001 L63.090,32.999 L70.823,33.002 L69.603,39.390 L63.168,39.390 Z" class="cls-2"/>
    <path d="M177.794,41.060 L174.299,35.386 L174.260,35.386 L174.285,35.702 C174.330,36.306 174.353,36.858 174.353,37.358 L174.353,41.060 L173.298,41.060 L173.298,33.939 L174.707,33.939 L178.192,39.584 L178.222,39.584 C178.215,39.510 178.202,39.238 178.183,38.768 C178.163,38.299 178.153,37.933 178.153,37.670 L178.153,33.939 L179.218,33.939 L179.218,41.060 L177.794,41.060 ZM168.696,41.157 C167.624,41.157 166.800,40.838 166.225,40.200 C165.650,39.562 165.362,38.656 165.362,37.480 C165.362,36.305 165.651,35.402 166.230,34.772 C166.808,34.142 167.633,33.827 168.706,33.827 C169.762,33.827 170.579,34.147 171.156,34.787 C171.732,35.426 172.021,36.328 172.021,37.490 C172.021,38.649 171.731,39.550 171.153,40.193 C170.575,40.836 169.756,41.157 168.696,41.157 ZM170.264,35.503 C169.915,35.051 169.396,34.826 168.706,34.826 C168.009,34.826 167.484,35.051 167.129,35.503 C166.774,35.954 166.597,36.616 166.597,37.490 C166.597,38.367 166.773,39.031 167.126,39.484 C167.479,39.937 168.003,40.164 168.696,40.164 C169.386,40.164 169.907,39.940 170.259,39.492 C170.610,39.044 170.786,38.376 170.786,37.490 C170.786,36.616 170.612,35.954 170.264,35.503 ZM166.218,47.205 C165.587,46.939 165.023,46.805 164.527,46.805 C164.151,46.805 163.866,46.887 163.672,47.051 C163.477,47.215 163.380,47.432 163.380,47.702 C163.380,47.887 163.419,48.045 163.497,48.176 C163.574,48.308 163.702,48.432 163.881,48.549 C164.059,48.666 164.380,48.820 164.843,49.012 C165.365,49.229 165.747,49.432 165.990,49.621 C166.233,49.809 166.411,50.022 166.525,50.259 C166.638,50.496 166.695,50.775 166.695,51.096 C166.695,51.730 166.466,52.226 166.009,52.587 C165.553,52.947 164.922,53.127 164.119,53.127 C163.315,53.127 162.657,53.002 162.145,52.752 L162.145,51.652 C162.469,51.804 162.814,51.924 163.178,52.012 C163.543,52.100 163.882,52.144 164.196,52.144 C164.657,52.144 164.996,52.056 165.215,51.881 C165.433,51.705 165.543,51.470 165.543,51.174 C165.543,50.908 165.442,50.682 165.241,50.497 C165.041,50.312 164.626,50.093 163.997,49.840 C163.349,49.577 162.892,49.276 162.627,48.939 C162.361,48.601 162.228,48.195 162.228,47.721 C162.228,47.127 162.439,46.659 162.860,46.318 C163.281,45.977 163.847,45.807 164.556,45.807 C165.237,45.807 165.914,45.956 166.588,46.255 L166.218,47.205 ZM162.923,33.939 L164.085,33.939 L164.085,41.060 L162.923,41.060 L162.923,33.939 ZM159.993,41.060 L158.832,41.060 L158.832,34.938 L156.742,34.938 L156.742,33.939 L162.083,33.939 L162.083,34.938 L159.993,34.938 L159.993,41.060 ZM155.615,41.060 L154.905,39.083 L152.189,39.083 L151.493,41.060 L150.425,41.060 L150.269,41.060 L149.103,41.060 L147.402,38.216 L146.255,38.216 L146.255,41.060 L145.093,41.060 L145.093,33.939 L147.101,33.939 C148.018,33.939 148.696,34.111 149.137,34.456 C149.578,34.800 149.798,35.319 149.798,36.014 C149.798,36.901 149.338,37.532 148.418,37.909 L150.326,40.905 L152.927,33.910 L154.191,33.910 L156.850,41.060 L155.615,41.060 ZM148.603,36.053 C148.603,35.651 148.471,35.361 148.209,35.186 C147.946,35.011 147.551,34.923 147.023,34.923 L146.255,34.923 L146.255,37.251 L147.062,37.251 C147.603,37.251 147.995,37.151 148.238,36.949 C148.481,36.748 148.603,36.449 148.603,36.053 ZM153.933,36.141 C153.885,36.011 153.817,35.806 153.732,35.527 C153.646,35.248 153.587,35.043 153.554,34.913 C153.467,35.313 153.339,35.750 153.170,36.224 L152.529,38.079 L154.599,38.079 L153.933,36.141 ZM144.725,49.640 L144.725,45.909 L145.789,45.909 L145.789,53.030 L144.365,53.030 L140.871,47.356 L140.832,47.356 L140.856,47.672 C140.901,48.276 140.924,48.828 140.924,49.328 L140.924,53.030 L139.869,53.030 L139.869,45.909 L141.279,45.909 L144.764,51.554 L144.793,51.554 C144.786,51.480 144.774,51.208 144.754,50.738 C144.735,50.269 144.725,49.903 144.725,49.640 ZM139.787,33.939 L143.806,33.939 L143.806,34.923 L140.948,34.923 L140.948,36.862 L143.627,36.862 L143.627,37.836 L140.948,37.836 L140.948,40.071 L143.806,40.071 L143.806,41.060 L139.787,41.060 L139.787,33.939 ZM141.746,33.369 L140.987,33.369 L140.987,33.248 C141.172,33.020 141.362,32.767 141.558,32.488 C141.754,32.209 141.909,31.970 142.023,31.772 L143.349,31.772 L143.349,31.874 C143.181,32.072 142.929,32.328 142.594,32.641 C142.258,32.955 141.976,33.197 141.746,33.369 ZM141.959,59.662 C141.959,60.078 141.853,60.423 141.639,60.699 C141.425,60.975 141.117,61.149 140.715,61.220 L140.715,61.269 C141.214,61.363 141.581,61.549 141.816,61.827 C142.051,62.104 142.168,62.480 142.168,62.954 C142.168,63.594 141.946,64.095 141.500,64.457 C141.055,64.819 140.435,65.000 139.641,65.000 L137.075,65.000 L137.075,57.879 L139.184,57.879 C140.163,57.879 140.870,58.022 141.306,58.308 C141.741,58.594 141.959,59.045 141.959,59.662 ZM138.236,64.021 L139.471,64.021 C139.957,64.021 140.324,63.928 140.572,63.741 C140.820,63.554 140.944,63.260 140.944,62.857 C140.944,62.487 140.817,62.212 140.565,62.034 C140.312,61.855 139.928,61.766 139.413,61.766 L138.236,61.766 L138.236,64.021 ZM140.392,59.077 C140.151,58.928 139.767,58.853 139.243,58.853 L138.236,58.853 L138.236,60.821 L139.354,60.821 C139.840,60.821 140.195,60.744 140.419,60.590 C140.642,60.435 140.754,60.173 140.754,59.803 C140.754,59.469 140.633,59.227 140.392,59.077 ZM137.236,51.053 L134.519,51.053 L133.824,53.030 L132.756,53.030 L132.599,53.030 L131.434,53.030 L129.733,50.186 L128.586,50.186 L128.586,53.030 L127.424,53.030 L127.424,45.909 L129.431,45.909 C130.348,45.909 131.027,46.081 131.468,46.426 C131.909,46.770 132.129,47.289 132.129,47.984 C132.129,48.871 131.669,49.502 130.749,49.879 L132.657,52.875 L135.258,45.880 L136.522,45.880 L139.180,53.030 L137.946,53.030 L137.236,51.053 ZM130.933,48.023 C130.933,47.620 130.802,47.331 130.540,47.156 C130.277,46.981 129.882,46.893 129.354,46.893 L128.586,46.893 L128.586,49.221 L129.393,49.221 C129.934,49.221 130.326,49.121 130.569,48.919 C130.812,48.718 130.933,48.419 130.933,48.023 ZM136.264,48.111 C136.215,47.981 136.148,47.776 136.062,47.497 C135.976,47.218 135.917,47.013 135.885,46.883 C135.797,47.283 135.669,47.719 135.501,48.194 L134.859,50.049 L136.930,50.049 L136.264,48.111 ZM134.718,41.060 L132.731,41.060 L132.731,33.939 L134.927,33.939 C136.058,33.939 136.938,34.245 137.567,34.855 C138.195,35.465 138.510,36.324 138.510,37.431 C138.510,38.607 138.184,39.506 137.533,40.127 C136.881,40.749 135.943,41.060 134.718,41.060 ZM134.898,34.913 L133.892,34.913 L133.892,40.081 L134.718,40.081 C136.429,40.081 137.285,39.211 137.285,37.470 C137.285,35.766 136.489,34.913 134.898,34.913 ZM127.424,33.939 L131.444,33.939 L131.444,34.923 L128.586,34.923 L128.586,36.862 L131.264,36.862 L131.264,37.836 L128.586,37.836 L128.586,40.071 L131.444,40.071 L131.444,41.060 L127.424,41.060 L127.424,33.939 ZM129.383,33.369 L128.625,33.369 L128.625,33.248 C128.809,33.020 129.000,32.767 129.196,32.488 C129.392,32.209 129.546,31.970 129.660,31.772 L130.987,31.772 L130.987,31.874 C130.818,32.072 130.566,32.328 130.231,32.641 C129.896,32.955 129.613,33.197 129.383,33.369 ZM127.177,64.067 C126.526,64.689 125.588,65.000 124.363,65.000 L122.375,65.000 L122.375,57.879 L124.572,57.879 C125.703,57.879 126.583,58.184 127.211,58.795 C127.840,59.405 128.154,60.264 128.154,61.371 C128.154,62.547 127.828,63.446 127.177,64.067 ZM124.543,58.853 L123.537,58.853 L123.537,64.021 L124.363,64.021 C126.074,64.021 126.929,63.151 126.929,61.410 C126.929,59.706 126.134,58.853 124.543,58.853 ZM123.527,49.119 L126.205,49.119 L126.205,50.108 L123.527,50.108 L123.527,53.030 L122.375,53.030 L122.375,45.909 L126.385,45.909 L126.385,46.893 L123.527,46.893 L123.527,49.119 ZM123.527,37.149 L126.205,37.149 L126.205,38.138 L123.527,38.138 L123.527,41.060 L122.375,41.060 L122.375,33.939 L126.385,33.939 L126.385,34.923 L123.527,34.923 L123.527,37.149 ZM133.451,58.863 L130.593,58.863 L130.593,60.802 L133.271,60.802 L133.271,61.776 L130.593,61.776 L130.593,64.011 L133.451,64.011 L133.451,65.000 L129.431,65.000 L129.431,57.879 L133.451,57.879 L133.451,58.863 ZM147.441,58.395 C147.882,58.740 148.102,59.259 148.102,59.954 C148.102,60.841 147.642,61.472 146.722,61.849 L148.729,65.000 L147.407,65.000 L145.706,62.156 L144.559,62.156 L144.559,65.000 L143.397,65.000 L143.397,57.879 L145.404,57.879 C146.321,57.879 147.000,58.051 147.441,58.395 ZM144.559,58.863 L144.559,61.191 L145.366,61.191 C145.907,61.191 146.299,61.091 146.542,60.889 C146.785,60.688 146.906,60.389 146.906,59.993 C146.906,59.590 146.775,59.301 146.513,59.126 C146.250,58.951 145.855,58.863 145.327,58.863 L144.559,58.863 ZM150.049,54.674 C150.151,54.620 150.202,54.520 150.202,54.374 C150.202,54.098 149.912,53.920 149.332,53.839 L149.714,53.080 C148.958,52.980 148.349,52.686 147.903,52.180 C147.345,51.549 147.067,50.645 147.067,49.470 C147.067,48.729 147.202,48.082 147.473,47.526 C147.743,46.971 148.134,46.546 148.646,46.250 C149.158,45.955 149.759,45.807 150.449,45.807 C151.175,45.807 151.846,45.960 152.462,46.265 L152.044,47.234 C151.804,47.120 151.550,47.021 151.283,46.934 C151.016,46.848 150.735,46.805 150.440,46.805 C149.772,46.805 149.247,47.042 148.865,47.517 C148.483,47.991 148.291,48.645 148.291,49.479 C148.291,50.353 148.475,51.014 148.843,51.462 C149.211,51.910 149.743,52.134 150.440,52.134 C150.741,52.134 151.033,52.104 151.315,52.044 C151.597,51.984 151.890,51.907 152.194,51.812 L152.194,52.811 C151.676,53.007 151.086,53.103 150.438,53.116 L150.279,53.459 C150.539,53.527 150.741,53.638 150.887,53.792 C151.033,53.946 151.106,54.131 151.106,54.345 C151.106,55.066 150.611,55.426 149.623,55.426 C149.409,55.426 149.213,55.402 149.035,55.353 L149.035,54.686 C149.210,54.731 149.409,54.754 149.633,54.754 C149.808,54.754 149.946,54.727 150.049,54.674 ZM150.672,65.000 L149.510,65.000 L149.510,57.879 L150.672,57.879 L150.672,65.000 ZM157.135,58.795 C157.764,59.405 158.078,60.264 158.078,61.371 C158.078,62.547 157.753,63.446 157.101,64.067 C156.450,64.689 155.512,65.000 154.287,65.000 L152.299,65.000 L152.299,57.879 L154.496,57.879 C155.627,57.879 156.507,58.184 157.135,58.795 ZM153.461,58.853 L153.461,64.021 L154.287,64.021 C155.998,64.021 156.853,63.151 156.853,61.410 C156.853,59.706 156.058,58.853 154.467,58.853 L153.461,58.853 ZM157.175,51.053 L154.458,51.053 L153.763,53.030 L152.538,53.030 L155.197,45.880 L156.461,45.880 L159.119,53.030 L157.885,53.030 L157.175,51.053 ZM156.203,48.111 C156.155,47.981 156.087,47.776 156.001,47.497 C155.916,47.218 155.856,47.013 155.824,46.883 C155.737,47.283 155.609,47.719 155.440,48.194 L154.799,50.049 L156.869,50.049 L156.203,48.111 ZM159.809,45.909 L160.970,45.909 L160.970,53.030 L159.809,53.030 L159.809,45.909 ZM162.709,57.777 C163.451,57.777 164.154,57.920 164.819,58.206 L164.410,59.175 C163.834,58.909 163.257,58.775 162.680,58.775 C161.922,58.775 161.322,59.014 160.882,59.491 C160.441,59.969 160.221,60.621 160.221,61.449 C160.221,62.320 160.419,62.981 160.816,63.434 C161.213,63.887 161.784,64.114 162.529,64.114 C162.905,64.114 163.307,64.067 163.735,63.972 L163.735,62.136 L162.262,62.136 L162.262,61.138 L164.877,61.138 L164.877,64.713 C164.449,64.852 164.039,64.951 163.645,65.010 C163.251,65.068 162.826,65.097 162.369,65.097 C161.293,65.097 160.464,64.778 159.880,64.140 C159.297,63.502 159.006,62.602 159.006,61.440 C159.006,60.293 159.334,59.396 159.992,58.749 C160.650,58.101 161.556,57.777 162.709,57.777 ZM170.354,58.863 L167.496,58.863 L167.496,60.802 L170.174,60.802 L170.174,61.776 L167.496,61.776 L167.496,64.011 L170.354,64.011 L170.354,65.000 L166.334,65.000 L166.334,57.879 L170.354,57.879 L170.354,58.863 ZM171.841,52.041 L171.841,53.030 L167.821,53.030 L167.821,45.909 L171.841,45.909 L171.841,46.893 L168.983,46.893 L168.983,48.832 L171.661,48.832 L171.661,49.806 L168.983,49.806 L168.983,52.041 L171.841,52.041 Z" class="cls-3"/>
    <path d="M113.000,32.999 L115.000,32.999 L115.000,64.999 L113.000,64.999 L113.000,32.999 Z" class="cls-4" id="ffb_text"/>
  </g>
</svg>
